<?xml version="1.0" encoding="utf-8"?>
<!-- Generator: Adobe Illustrator 16.0.0, SVG Export Plug-In . SVG Version: 6.00 Build 0)  -->
<!DOCTYPE svg PUBLIC "-//W3C//DTD SVG 1.1//EN" "http://www.w3.org/Graphics/SVG/1.1/DTD/svg11.dtd">
<svg version="1.1" id="Layer_1" xmlns="http://www.w3.org/2000/svg" xmlns:xlink="http://www.w3.org/1999/xlink" x="0px" y="0px"
	 width="612px" height="623.5px" viewBox="0 0 612 623.5" enable-background="new 0 0 612 623.5" xml:space="preserve">
<path fill="#FFFFFF" d="M289.68,73.34c0-4.304-0.34-7.936-1.02-10.88c-1.137-7.023-3.177-11.22-6.12-12.58
	c-4.306,1.36-15.069,27.316-32.302,77.86c-0.202,0.823-0.318,1.673-0.34,2.55c0.027-0.625,0.145-1.136,0.34-1.528
	C267.92,96.113,281.065,77.644,289.68,73.34z M329.8,62.46c-0.449,2.944-0.911,6.686-1.36,11.222
	c8.84,4.304,21.984,22.896,39.44,55.76c0,0.448,0.347,0.796,1.02,1.02c-0.68-0.68-1.02-1.251-1.02-1.698
	c-16.771-51-27.426-77.064-31.953-78.2C333.198,51.465,331.158,55.435,329.8,62.46z M326.4,89.313c-0.448,0-0.904,0.115-1.36,0.34
	c-0.68,0.449-1.469,0.68-2.38,0.68c0.682,0.226,1.015,0.796,1.015,1.7c-0.904,2.944-1.354,7.48-1.354,13.601
	c0,11.104,1.015,20.85,3.054,29.239c1.136,5.896,3.632,12.696,7.486,20.4c3.176,7.936,5.216,12.92,6.113,14.96h0.687
	c1.816,2.944,2.714,8.385,2.714,16.32c0,5.896,0.571,12.804,1.699,20.739c1.36,8.159,2.047,15.415,2.047,21.761
	c-0.455,4.304,0.116,10.424,1.7,18.358c15.186,5.44,26.629,22.332,34.34,50.66c1.815,8.84,3.966,20.972,6.46,36.38
	c1.816,12.696,3.285,20.4,4.413,23.12c0.226,2.265-0.114,4.08-1.013,5.44c-0.911,2.271-2.271,3.849-4.087,4.76
	c-1.815,0.225-3.74,0.115-5.78-0.34c-1.814-1.36-3.06-2.836-3.739-4.42c-1.136-2.951-2.836-11.784-5.101-26.515
	c-2.047-14.511-4.195-26.063-6.46-34.687c-5.671-23.8-14.62-37.284-26.859-40.46h-0.341c-1.359-0.456-2.72-0.681-4.087-0.681
	c-2.944,0-4.984,1.244-6.112,3.739c-2.04,3.856-3.061,9.181-3.061,15.98c0,5.216,0.225,9.976,0.68,14.279
	c0.688,1.815,1.585,5.101,2.721,9.859c2.951,9.745,4.421,21.645,4.421,35.7c0,15.64-1.585,31.164-4.761,46.58
	c-1.585,8.385-2.61,13.716-3.061,15.985c-0.904,5.665-1.36,11.329-1.36,17c0,22.666,5.549,43.065,16.66,61.2
	c9.521,15.416,24.024,30.602,43.521,45.555c13.145,9.296,33.313,22.1,60.513,38.42c26.976,16.089,46.92,28.56,59.841,37.399
	c32.646-21.983,57.011-50.659,73.101-86.021c-11.784-2.944-18.47-4.753-20.055-5.439h-0.333
	c-11.328-3.399-21.413-6.801-30.253-10.199c-23.8-8.16-44.2-18.477-61.2-30.94c-18.358-13.375-28.45-24.819-30.26-34.34
	c-2.271-8.16-5.896-33.66-10.887-76.5c-4.984-41.937-11.9-77.296-20.74-106.08c-3.4-11.562-6.46-21.08-9.18-28.562v-1.02
	c-3.4-10.425-5.787-16.886-7.142-19.38v-0.341c-2.495-4.761-7.146-14.165-13.945-28.221c-8.153-15.864-14.846-28.898-20.055-39.1
	C340.115,108.808,330.711,93.169,326.4,89.313z M296.14,105.64c0-6.12-0.115-10.656-0.34-13.602c-0.68-2.04-1.36-3.398-2.04-4.08
	c-3.4,1.137-13.26,17.116-29.58,47.94c-5.438,9.751-12.124,22.664-20.06,38.76c-7.024,13.824-11.785,23.005-14.28,27.54
	c-1.136,3.176-3.624,9.751-7.48,19.72v0.342c0,0.447,0,0.795,0,1.02c-2.264,7.256-5.1,16.885-8.5,28.9
	c-8.84,27.88-15.755,62.898-20.738,105.06c-5.217,43.064-8.84,68.682-10.88,76.84c-1.816,9.521-11.9,20.74-30.262,33.66
	c-17.224,12.24-37.624,22.324-61.198,30.26c-9.064,3.4-19.266,6.569-30.602,9.515c-1.584,0.687-8.275,2.61-20.06,5.787
	c16.318,35.353,40.351,64.253,72.08,86.7c13.144-8.849,33.318-21.196,60.52-37.062c27.425-15.415,47.484-27.887,60.18-37.398
	c19.496-14.962,34.116-30.036,43.86-45.222c11.104-17.68,16.66-37.849,16.66-60.514c0-5.671-0.34-11.335-1.021-17
	c-0.224-2.271-1.244-7.711-3.06-16.319c-3.4-15.641-5.102-31.049-5.102-46.24c0-14.056,1.478-25.956,4.422-35.7
	c1.358-4.76,2.147-8.274,2.38-10.539c0.903-3.85,1.358-8.385,1.358-13.601c0-6.8-1.02-12.125-3.06-15.979
	c-1.585-2.495-3.624-3.85-6.12-4.08c-1.136,0-2.265,0.115-3.4,0.341h-0.68c-11.784,2.72-20.964,16.204-27.54,40.46
	c-2.04,8.159-4.305,19.835-6.8,35.013c-2.04,14.287-3.516,23.012-4.42,26.188c-0.904,1.815-2.266,3.176-4.08,4.08
	c-2.265,0.91-4.305,0.91-6.12,0c-1.815-0.681-2.951-2.04-3.4-4.08c-1.584-1.815-1.924-3.624-1.02-5.439
	c0.904-2.496,2.265-10.314,4.08-23.46c2.495-15.185,4.76-27.2,6.8-36.04c7.256-29.016,18.815-45.784,34.68-50.32
	c0.904-7.703,1.36-13.823,1.36-18.358c0-6.345,0.68-13.602,2.04-21.761c1.136-7.704,1.7-14.504,1.7-20.399
	c0-7.936,0.903-13.376,2.72-16.32h-0.34c1.584-2.495,4.195-7.704,7.82-15.64c2.95-7.249,5.1-13.824,6.46-19.721
	C295.12,126.489,296.14,116.745,296.14,105.64z M596.02,510.58c0.68,1.137,0.564,2.489-0.347,4.08
	c-18.129,43.296-46.688,77.752-85.681,103.36c-1.129,0.449-2.604,0.68-4.414,0.68c-1.353,0-2.713-0.455-4.078-1.358
	c-12.466-8.841-33.553-21.876-63.24-39.102c-28.111-16.774-48.853-30.035-62.222-39.786c-21.078-15.864-36.95-32.416-47.6-49.641
	c-12.465-20.624-18.7-43.629-18.7-69.015c0-6.351,0.688-12.694,2.04-19.046c0.226-2.714,1.136-8.385,2.72-17
	c2.952-14.279,4.422-28.785,4.422-43.514c0-12.24-1.021-22.787-3.062-31.62c-1.814-5.438-2.72-9.18-2.72-11.22
	c-1.36-4.984-2.04-10.648-2.04-17c0-9.744,1.584-17.34,4.76-22.78c3.849-7.024,9.289-10.995,16.313-11.899
	c-1.129-6.801-1.7-12.465-1.7-17c0-5.439-0.449-11.784-1.354-19.039c-1.358-8.616-2.047-16.32-2.047-23.12
	c0-4.08-0.224-6.916-0.68-8.5c-1.36-2.496-3.971-8.275-7.82-17.34c-3.624-8.386-6.351-15.749-8.151-22.102
	c-0.449-2.495-0.797-4.645-1.021-6.46c-0.68,1.815-1.251,3.849-1.7,6.12c-1.584,6.575-4.08,14.056-7.479,22.439
	c-3.849,8.841-6.46,14.396-7.82,16.659c-0.68,1.585-1.02,4.646-1.02,9.182c0,6.574-0.564,14.049-1.7,22.438
	c-1.136,7.48-1.7,13.94-1.7,19.38c0,4.536-0.34,10.085-1.02,16.66c6.8,1.36,12.015,5.549,15.64,12.58
	c2.944,5.44,4.42,13.036,4.42,22.78c0,6.352-0.225,12.016-0.688,17c-0.681,2.04-1.815,5.664-3.399,10.88
	c-2.495,9.071-3.74,19.72-3.74,31.96c0,14.729,1.7,29.24,5.102,43.514c1.584,8.615,2.494,14.056,2.72,16.319
	c1.354,6.8,2.04,13.376,2.04,19.721c-0.456,25.385-6.916,48.279-19.38,68.681c-10.655,16.774-26.521,33.211-47.601,49.3
	c-13.15,9.521-33.659,22.324-61.539,38.42c-29.921,17-51.116,30.146-63.58,39.44c-1.585,0.68-2.951,1.013-4.08,1.013
	c-1.585,0-2.951-0.34-4.08-1.013c-39.216-26.521-67.885-61.426-86.021-104.721c-0.68-1.359-0.903-2.714-0.68-4.08
	c0.456-1.585,1.136-2.836,2.04-3.739c0.904-1.137,2.265-1.933,4.08-2.388c16.774-4.528,26.063-7.141,27.88-7.813
	c11.336-2.951,21.195-5.896,29.58-8.848c22.216-7.703,41.479-17.34,57.8-28.899c14.049-10.199,22.101-18.584,24.141-25.152v0.34
	c2.04-7.936,5.557-32.872,10.54-74.801c4.761-43.064,11.784-79.104,21.079-108.12c3.4-11.56,6.461-21.195,9.182-28.898
	c2.72-13.369,5.896-25.5,9.52-36.381c6.353-22.665,12.465-42.385,18.36-59.159c20.399-60.064,35.814-89.421,46.24-88.062
	c11.104-0.68,18.02,7.48,20.738,24.48c0.681,4.305,1.136,9.403,1.36,15.3c0,0.68,0,1.585,0,2.72c2.04,1.816,3.631,4.536,4.76,8.16
	c0.904-3.399,2.38-6.12,4.42-8.16c0-1.135,0-2.04,0-2.72c0-5.896,0.449-10.995,1.354-15.3v0.68
	c2.957-17.448,9.872-25.493,20.754-24.133c10.88-1.585,26.287,27.647,46.238,87.72c5.665,17.225,12.017,37.061,19.04,59.5
	c3.177,11.104,6.236,23.235,9.182,36.38l0.347,0.681c2.264,7.479,5.215,16.885,8.84,28.221c9.064,29.464,16.089,65.612,21.08,108.46
	c4.76,41.929,8.275,66.749,10.54,74.453c1.815,7.031,9.976,15.756,24.486,26.188c15.863,11.104,35.129,20.85,57.8,29.239
	c8.16,3.176,17.789,6.353,28.899,9.521h0.341c2.04,0.68,11.45,3.398,28.221,8.152c1.353,0.23,2.604,0.795,3.739,1.699
	C595.564,507.513,596.02,508.989,596.02,510.58z"/>
</svg>
